<svg width="13" height="15" viewBox="0 0 13 15" fill="none" xmlns="http://www.w3.org/2000/svg">
<path d="M12.3691 3.25738H10.2404V1.92692C10.2404 1.33985 9.7631 0.862549 9.17603 0.862549H3.85419C3.26713 0.862549 2.78983 1.33985 2.78983 1.92692V3.25738H0.66109C0.366726 3.25738 0.128906 3.4952 0.128906 3.78956V4.32174C0.128906 4.39492 0.188777 4.45479 0.261952 4.45479H1.26645L1.67723 13.1527C1.70384 13.7198 2.17283 14.1671 2.73993 14.1671H10.2903C10.8591 14.1671 11.3264 13.7214 11.353 13.1527L11.7638 4.45479H12.7683C12.8415 4.45479 12.9013 4.39492 12.9013 4.32174V3.78956C12.9013 3.4952 12.6635 3.25738 12.3691 3.25738ZM9.04299 3.25738H3.98724V2.05996H9.04299V3.25738Z" fill="#4B33A2"/>
</svg>
