<svg width="16" height="12" viewBox="0 0 16 12" fill="none" xmlns="http://www.w3.org/2000/svg">
<path d="M15.2623 8.13234C15.3273 7.77984 15.3273 7.41984 15.2623 7.06734L15.9073 6.69484C15.9823 6.65234 16.0148 6.56484 15.9898 6.48234C15.8223 5.94234 15.5348 5.45234 15.1598 5.04734C15.1023 4.98484 15.0098 4.96984 14.9348 5.01234L14.2898 5.38484C14.0173 5.15234 13.7048 4.97234 13.3673 4.85234V4.10734C13.3673 4.02234 13.3073 3.94734 13.2248 3.92984C12.6673 3.80484 12.0998 3.80984 11.5698 3.92984C11.4873 3.94734 11.4273 4.02234 11.4273 4.10734V4.85234C11.0898 4.97234 10.7773 5.15234 10.5048 5.38484L9.85976 5.01234C9.78726 4.96984 9.69226 4.98484 9.63476 5.04734C9.25976 5.45234 8.97226 5.94234 8.80476 6.48234C8.77976 6.56484 8.81476 6.65234 8.88726 6.69484L9.53226 7.06734C9.46726 7.41984 9.46726 7.77984 9.53226 8.13234L8.88726 8.50484C8.81226 8.54734 8.77976 8.63484 8.80476 8.71734C8.97226 9.25734 9.25976 9.74484 9.63476 10.1523C9.69226 10.2148 9.78476 10.2298 9.85976 10.1873L10.5048 9.81484C10.7773 10.0473 11.0898 10.2273 11.4273 10.3473V11.0923C11.4273 11.1773 11.4873 11.2523 11.5698 11.2698C12.1273 11.3948 12.6948 11.3898 13.2248 11.2698C13.3073 11.2523 13.3673 11.1773 13.3673 11.0923V10.3473C13.7048 10.2273 14.0173 10.0473 14.2898 9.81484L14.9348 10.1873C15.0073 10.2298 15.1023 10.2148 15.1598 10.1523C15.5348 9.74734 15.8223 9.25734 15.9898 8.71734C16.0148 8.63484 15.9798 8.54734 15.9073 8.50484L15.2623 8.13234ZM12.3998 8.81234C11.7298 8.81234 11.1873 8.26734 11.1873 7.59984C11.1873 6.93234 11.7323 6.38734 12.3998 6.38734C13.0673 6.38734 13.6123 6.93234 13.6123 7.59984C13.6123 8.26734 13.0698 8.81234 12.3998 8.81234ZM2.39976 5.19984C3.28226 5.19984 3.99976 4.48234 3.99976 3.59984C3.99976 2.71734 3.28226 1.99984 2.39976 1.99984C1.51726 1.99984 0.799756 2.71734 0.799756 3.59984C0.799756 4.48234 1.51726 5.19984 2.39976 5.19984ZM7.99976 5.99984C8.04726 5.99984 8.09226 5.98734 8.13976 5.98484C8.34726 5.44234 8.65226 4.93234 9.04726 4.50484C9.23226 4.30484 9.49476 4.18984 9.76976 4.18984C9.94226 4.18984 10.1123 4.23484 10.2598 4.32234L10.4573 4.43734C10.4773 4.42484 10.4973 4.41484 10.5173 4.40234C10.6923 4.03734 10.7973 3.63234 10.7973 3.20234C10.7973 1.65484 9.54476 0.402344 7.99726 0.402344C6.44976 0.402344 5.19976 1.65234 5.19976 3.19984C5.19976 4.74734 6.45226 5.99984 7.99976 5.99984ZM10.6298 10.8623C10.5723 10.8323 10.5148 10.7973 10.4598 10.7648C10.2548 10.8848 10.0773 11.0098 9.77226 11.0098C9.49976 11.0098 9.23726 10.8948 9.04976 10.6948C8.59226 10.1998 8.24226 9.59734 8.04476 8.95484C7.77726 8.09234 8.66726 7.71234 8.68976 7.69734C8.68726 7.63234 8.68726 7.56734 8.68976 7.50234L8.49226 7.38734C8.39726 7.33234 8.31726 7.26234 8.24726 7.18484C8.16476 7.18984 8.08476 7.19984 8.00226 7.19984C7.38726 7.19984 6.81226 7.04984 6.28976 6.79984H6.08226C4.48976 6.79984 3.19976 8.08984 3.19976 9.67984V10.3998C3.19976 11.0623 3.73726 11.5998 4.39976 11.5998H10.7848C10.6923 11.4498 10.6298 11.2798 10.6298 11.0923V10.8623ZM4.32726 6.46484C4.03726 6.17734 3.63976 5.99984 3.19976 5.99984H1.59976C0.717256 5.99984 -0.000244141 6.71734 -0.000244141 7.59984V8.39984C-0.000244141 8.84234 0.357256 9.19984 0.799756 9.19984H2.44726C2.60476 8.01484 3.31976 7.01734 4.32726 6.46484Z" fill="#4B33A2"/>
</svg>
