<svg width="32" height="26" viewBox="0 0 32 26" fill="none" xmlns="http://www.w3.org/2000/svg">
<path d="M24.8971 11.4972L14.3029 0.903145C13.8529 0.453057 13.2424 0.200199 12.6059 0.200195H2.4C1.0745 0.200195 0 1.2747 0 2.6002V12.8061C3.32838e-06 13.4426 0.252862 14.0531 0.70295 14.5031L11.297 25.0972C12.2343 26.0345 13.7538 26.0345 14.6911 25.0972L24.8971 14.8913C25.8343 13.9541 25.8343 12.4345 24.8971 11.4972ZM5.6 8.2002C4.2745 8.2002 3.2 7.1257 3.2 5.8002C3.2 4.4747 4.2745 3.4002 5.6 3.4002C6.9255 3.4002 8 4.4747 8 5.8002C8 7.1257 6.9255 8.2002 5.6 8.2002ZM31.297 14.8913L21.0912 25.0972C20.1539 26.0345 18.6343 26.0345 17.6971 25.0972L17.6791 25.0792L26.382 16.3763C27.232 15.5263 27.7 14.3963 27.7 13.1943C27.7 11.9923 27.2319 10.8622 26.382 10.0123L16.5699 0.200195H19.0059C19.6424 0.200199 20.2529 0.453057 20.7029 0.903145L31.297 11.4972C32.2343 12.4345 32.2343 13.9541 31.297 14.8913Z" />
</svg>
